<svg width="300" height="300" viewBox="0 0 300 300" fill="none" xmlns="http://www.w3.org/2000/svg">
<g clip-path="url(#clip0_303_10)">
<rect width="300" height="300" fill="white"/>
<rect width="300" height="300" rx="57" fill="#1E1E1E"/>
<path d="M137.82 71.22C150.433 71.22 160.627 72.54 168.4 75.18C176.32 77.82 182.04 82.3667 185.56 88.82C189.227 95.1267 191.06 104.073 191.06 115.66C191.06 123.287 190.107 129.813 188.2 135.24C186.44 140.52 183.433 144.773 179.18 148C175.073 151.08 169.5 153.06 162.46 153.94V155.04C164.953 155.627 167.52 156.8 170.16 158.56C172.947 160.173 175.44 162.52 177.64 165.6C179.987 168.68 181.747 172.64 182.92 177.48L196.78 225H167.74L155.2 178.14C153.587 172.86 151.387 169.193 148.6 167.14C145.813 164.94 142 163.84 137.16 163.84C127.627 163.84 119.487 163.84 112.74 163.84C105.993 163.693 100.347 163.547 95.8 163.4C91.4 163.253 87.5133 163.18 84.14 163.18L84.8 142.28H137.16C143.76 142.133 148.967 141.4 152.78 140.08C156.593 138.613 159.307 136.12 160.92 132.6C162.533 128.933 163.34 123.8 163.34 117.2C163.34 110.747 162.533 105.76 160.92 102.24C159.307 98.72 156.593 96.3 152.78 94.98C148.967 93.5133 143.76 92.78 137.16 92.78C124.253 92.78 113.18 92.8533 103.94 93C94.7 93.1467 88.3933 93.2933 85.02 93.44L81.94 73.2C87.8067 72.6133 93.3067 72.1733 98.44 71.88C103.72 71.5867 109.44 71.44 115.6 71.44C121.76 71.2933 129.167 71.22 137.82 71.22ZM109 73.2V225H81.94V73.2H109Z" fill="white"/>
<rect x="218" y="201" width="24" height="24" rx="8" fill="#80ED99"/>
</g>
<defs>
<clipPath id="clip0_303_10">
<rect width="300" height="300" fill="white"/>
</clipPath>
</defs>
</svg>
